<?xml version="1.0" standalone="no"?>
<!DOCTYPE svg PUBLIC "-//W3C//DTD SVG 20010904//EN"
 "http://www.w3.org/TR/2001/REC-SVG-20010904/DTD/svg10.dtd">
<svg version="1.0" xmlns="http://www.w3.org/2000/svg"
 width="1024.000000pt" height="1024.000000pt" viewBox="0 0 1024.000000 1024.000000"
 preserveAspectRatio="xMidYMid meet">

<g transform="translate(0.000000,1024.000000) scale(0.100000,-0.100000)"
fill="#000000" stroke="none">
<path d="M2102 6887 l-1762 -1762 0 -708 0 -707 1760 0 1760 0 0 -885 0 -885
880 0 880 0 0 1595 0 1595 -1757 0 -1758 0 1085 1088 c597 598 1386 1390 1755
1760 l670 672 -875 0 -875 0 -1763 -1763z"/>
<path d="M6380 7773 l0 -878 875 875 c481 481 875 876 875 877 0 2 -394 3
-875 3 l-875 0 0 -877z"/>
<path d="M8140 7772 l0 -877 -880 -880 -880 -880 0 -882 0 -883 1760 0 1760 0
0 875 c0 481 -3 875 -7 875 -5 0 -401 -393 -880 -872 l-873 -873 0 880 0 880
880 880 880 880 0 877 0 878 -880 0 -880 0 0 -878z"/>
</g>
</svg>
